<?xml version="1.0" encoding="UTF-8" standalone="no"?>
<!-- Created with Inkscape (http://www.inkscape.org/) -->

<svg
   xmlns:dc="http://purl.org/dc/elements/1.1/"
   xmlns:cc="http://creativecommons.org/ns#"
   xmlns:rdf="http://www.w3.org/1999/02/22-rdf-syntax-ns#"
   xmlns:svg="http://www.w3.org/2000/svg"
   xmlns="http://www.w3.org/2000/svg"
   xmlns:sodipodi="http://sodipodi.sourceforge.net/DTD/sodipodi-0.dtd"
   xmlns:inkscape="http://www.inkscape.org/namespaces/inkscape"
   version="1.1"
   width="712"
   height="760.60938"
   id="svg2"
   inkscape:version="0.48.1 r9760"
   sodipodi:docname="harveyballs.svg"><sodipodi:namedview
   pagecolor="#ffffff"
   bordercolor="#666666"
   borderopacity="1"
   objecttolerance="10"
   gridtolerance="10"
   guidetolerance="10"
   inkscape:pageopacity="0"
   inkscape:pageshadow="2"
   inkscape:window-width="1448"
   inkscape:window-height="965"
   id="namedview51"
   showgrid="false"
   inkscape:zoom="7.4759358"
   inkscape:cx="641.93295"
   inkscape:cy="92.292944"
   inkscape:window-x="117"
   inkscape:window-y="0"
   inkscape:window-maximized="0"
   inkscape:current-layer="svg2" />
<metadata
   id="metadata100">
  <rdf:RDF>
    <cc:Work
       rdf:about="">
      <dc:format>image/svg+xml</dc:format>
      <dc:type
         rdf:resource="http://purl.org/dc/dcmitype/StillImage" />
      <dc:title />
    </cc:Work>
  </rdf:RDF>
</metadata>
<defs
   id="defs98" />
<text
   style="font-size:5.27988052px;fill:#000000;font-family:Verdana"
   id="text4"
   y="660.43951"
   x="644.16943">HARVEY BALLS</text>



















 ##################ROW 1 ##################
<circle
   style="fill:#ffffff;stroke:#000000;stroke-width:0.75759292;stroke-miterlimit:4;stroke-dasharray:none"
   id="circle6"
   transform="matrix(0.13199701,0,0,0.13199701,607.87024,656.47962)"
   r="50"
   cy="100"
   cx="100"
   sodipodi:cx="100"
   sodipodi:cy="100"
   sodipodi:rx="50"
   sodipodi:ry="50" />
<circle
   style="fill:#ffffff;stroke:#000000;stroke-width:0.75759292;stroke-miterlimit:4;stroke-dasharray:none"
   id="circle8"
   transform="matrix(0.13199701,0,0,0.13199701,607.87024,656.47962)"
   r="50"
   cy="100"
   cx="250"
   sodipodi:cx="250"
   sodipodi:cy="100"
   sodipodi:rx="50"
   sodipodi:ry="50" />
<path
   style="fill:#000000;stroke-width:0;stroke-miterlimit:4;stroke-dasharray:none"
   id="path10"
   d="m 640.86949,669.67932 v -6.59985 a 6.5998505,6.5998505 0 0 1 6.59985,6.59985 z"
   inkscape:connector-curvature="0" />
<circle
   style="fill:#000000;stroke:#000000;stroke-width:0.75759292;stroke-miterlimit:4;stroke-dasharray:none"
   id="circle12"
   transform="matrix(0.13199701,0,0,0.13199701,607.87024,656.47962)"
   r="50"
   cy="100"
   cx="400"
   sodipodi:cx="400"
   sodipodi:cy="100"
   sodipodi:rx="50"
   sodipodi:ry="50" />
<path
   style="fill:#ffffff;stroke-width:0.1;stroke-miterlimit:4;stroke-dasharray:none"
   id="path14"
   d="m 660.66904,669.67932 h -6.59984 a 6.5998505,6.5998505 0 0 1 6.59984,-6.59985 z"
   inkscape:connector-curvature="0" />
<path
   style="fill:#ffffff;stroke-width:0.1;stroke-miterlimit:4;stroke-dasharray:none"
   id="path16"
   d="m 660.66904,669.67932 h -6.59984 a 6.5998505,6.5998505 0 0 0 6.59984,6.59985 z"
   inkscape:connector-curvature="0" />
<circle
   style="fill:#000000;stroke:#000000;stroke-width:0.75759292;stroke-miterlimit:4;stroke-dasharray:none"
   id="circle18"
   transform="matrix(0.13199701,0,0,0.13199701,607.87024,656.47962)"
   r="50"
   cy="100"
   cx="550"
   sodipodi:cx="550"
   sodipodi:cy="100"
   sodipodi:rx="50"
   sodipodi:ry="50" />
<path
   style="fill:#ffffff;stroke-width:0.1;stroke-miterlimit:4;stroke-dasharray:none"
   id="path20"
   d="m 680.4686,669.67932 h -6.59985 a 6.5998505,6.5998505 0 0 1 6.59985,-6.59985 z"
   inkscape:connector-curvature="0" />
<path
   style="fill:#000000"
   id="path22"
   d="m 673.86875,669.67932 a 6.5998505,6.5998505 0 0 0 13.1997,0 z"
   inkscape:connector-curvature="0" />
<circle
   style="fill:#000000;stroke:#000000;stroke-width:0.75759292;stroke-miterlimit:4;stroke-dasharray:none"
   id="circle24"
   transform="matrix(0.13199701,0,0,0.13199701,607.87024,656.47962)"
   r="50"
   cy="100"
   cx="700"
   sodipodi:cx="700"
   sodipodi:cy="100"
   sodipodi:rx="50"
   sodipodi:ry="50" />




















 ################## ROW 2 ##################
<circle
   style="fill:#000000;stroke:#000000;stroke-width:2"
   id="circle26"
   transform="matrix(0.13199701,0,0,0.13199701,607.87024,656.47962)"
   r="50"
   cy="250"
   cx="100"
   sodipodi:cx="100"
   sodipodi:cy="250"
   sodipodi:rx="50"
   sodipodi:ry="50" />
<circle
   style="fill:#000000;stroke:#000000;stroke-width:2"
   id="circle28"
   transform="matrix(0.13199701,0,0,0.13199701,607.87024,656.47962)"
   r="50"
   cy="250"
   cx="250"
   sodipodi:cx="250"
   sodipodi:cy="250"
   sodipodi:rx="50"
   sodipodi:ry="50" />
<path
   style="fill:#ffffff"
   id="path30"
   d="m 640.86949,689.47887 v -6.59985 a 6.5998505,6.5998505 0 0 1 6.59985,6.59985 z"
   inkscape:connector-curvature="0" />
<circle
   style="fill:#ffffff;stroke:#000000;stroke-width:2"
   id="circle32"
   transform="matrix(0.13199701,0,0,0.13199701,607.87024,656.47962)"
   r="50"
   cy="250"
   cx="400"
   sodipodi:cx="400"
   sodipodi:cy="250"
   sodipodi:rx="50"
   sodipodi:ry="50" />
<path
   style="fill:#000000"
   id="path34"
   d="m 660.66904,689.47887 h -6.59984 a 6.5998505,6.5998505 0 0 1 6.59984,-6.59985 z"
   inkscape:connector-curvature="0" />
<path
   style="fill:#000000"
   id="path36"
   d="m 660.66904,689.47887 h -6.59984 a 6.5998505,6.5998505 0 0 0 6.59984,6.59985 z"
   inkscape:connector-curvature="0" />
<circle
   style="fill:#ffffff;stroke:#000000;stroke-width:2"
   id="circle38"
   transform="matrix(0.13199701,0,0,0.13199701,607.87024,656.47962)"
   r="50"
   cy="250"
   cx="550"
   sodipodi:cx="550"
   sodipodi:cy="250"
   sodipodi:rx="50"
   sodipodi:ry="50" />
<path
   style="fill:#000000"
   id="path40"
   d="m 680.4686,689.47887 h -6.59985 a 6.5998505,6.5998505 0 0 1 6.59985,-6.59985 z"
   inkscape:connector-curvature="0" />
<circle
   style="fill:#ffffff;stroke:#000000;stroke-width:0.75759292;stroke-miterlimit:4;stroke-dasharray:none"
   id="circle42"
   transform="matrix(0.13199701,0,0,0.13199701,607.87024,656.47962)"
   r="50"
   cy="250"
   cx="700"
   sodipodi:cx="700"
   sodipodi:cy="250"
   sodipodi:rx="50"
   sodipodi:ry="50" />




















 ################## ROW 3 ##################
<circle
   style="fill:#000000;stroke:#000000;stroke-width:2"
   id="circle44"
   transform="matrix(0.13199701,0,0,0.13199701,607.87024,656.47962)"
   r="50"
   cy="400"
   cx="100"
   sodipodi:cx="100"
   sodipodi:cy="400"
   sodipodi:rx="50"
   sodipodi:ry="50" />
<circle
   style="fill:#000000;stroke:#000000;stroke-width:2"
   id="circle46"
   transform="matrix(0.13199701,0,0,0.13199701,607.87024,656.47962)"
   r="50"
   cy="400"
   cx="250"
   sodipodi:cx="250"
   sodipodi:cy="400"
   sodipodi:rx="50"
   sodipodi:ry="50" />
<path
   style="fill:#ffffff"
   id="path48"
   d="m 640.86949,709.27842 h -6.59985 a 6.5998505,6.5998505 0 0 1 6.59985,-6.59985 z"
   inkscape:connector-curvature="0" />
<circle
   style="fill:#000000;stroke:#000000;stroke-width:2"
   id="circle50"
   transform="matrix(0.13199701,0,0,0.13199701,607.87024,656.47962)"
   r="50"
   cy="400"
   cx="400"
   sodipodi:cx="400"
   sodipodi:cy="400"
   sodipodi:rx="50"
   sodipodi:ry="50" />
<path
   style="fill:#ffffff"
   id="path52"
   d="m 660.66904,709.27842 h -6.59984 a 6.5998505,6.5998505 0 0 1 6.59984,-6.59985 z"
   inkscape:connector-curvature="0" />
<path
   style="fill:#ffffff"
   id="path54"
   d="m 660.66904,709.27842 h -6.59984 a 6.5998505,6.5998505 0 0 0 6.59984,6.59985 z"
   inkscape:connector-curvature="0" />
<circle
   style="fill:#ffffff;stroke:#000000;stroke-width:2"
   id="circle56"
   transform="matrix(0.13199701,0,0,0.13199701,607.87024,656.47962)"
   r="50"
   cy="400"
   cx="550"
   sodipodi:cx="550"
   sodipodi:cy="400"
   sodipodi:rx="50"
   sodipodi:ry="50" />
<path
   style="fill:#000000"
   id="path58"
   d="m 680.4686,709.27842 v -6.59985 a 6.5998505,6.5998505 0 0 1 6.59985,6.59985 z"
   inkscape:connector-curvature="0" />
<circle
   style="fill:#ffffff;stroke:#000000;stroke-width:2"
   id="circle60"
   transform="matrix(0.13199701,0,0,0.13199701,607.87024,656.47962)"
   r="50"
   cy="400"
   cx="700"
   sodipodi:cx="700"
   sodipodi:cy="400"
   sodipodi:rx="50"
   sodipodi:ry="50" />



















  
 ################## ROW 4 ##################
<circle
   style="fill:#ffffff;stroke:#000000;stroke-width:2"
   id="circle62"
   transform="matrix(0.13199701,0,0,0.13199701,607.87024,656.47962)"
   r="50"
   cy="550"
   cx="100"
   sodipodi:cx="100"
   sodipodi:cy="550"
   sodipodi:rx="50"
   sodipodi:ry="50" />
<circle
   style="fill:#ffffff;stroke:#000000;stroke-width:2"
   id="circle64"
   transform="matrix(0.13199701,0,0,0.13199701,607.87024,656.47962)"
   r="50"
   cy="550"
   cx="250"
   sodipodi:cx="250"
   sodipodi:cy="550"
   sodipodi:rx="50"
   sodipodi:ry="50" />
<path
   style="fill:#000000"
   id="path66"
   d="m 640.86949,729.07798 h -6.59985 a 6.5998505,6.5998505 0 0 1 6.59985,-6.59986 z"
   inkscape:connector-curvature="0" />
<circle
   style="fill:#ffffff;stroke:#000000;stroke-width:2"
   id="circle68"
   transform="matrix(0.13199701,0,0,0.13199701,607.87024,656.47962)"
   r="50"
   cy="550"
   cx="400"
   sodipodi:cx="400"
   sodipodi:cy="550"
   sodipodi:rx="50"
   sodipodi:ry="50" />
<path
   style="fill:#000000"
   id="path70"
   d="m 660.66904,729.07798 h -6.59984 a 6.5998505,6.5998505 0 0 1 6.59984,-6.59986 z"
   inkscape:connector-curvature="0" />
<path
   style="fill:#000000"
   id="path72"
   d="m 660.66904,729.07798 h -6.59984 a 6.5998505,6.5998505 0 0 0 6.59984,6.59985 z"
   inkscape:connector-curvature="0" />
<circle
   style="fill:#000000;stroke:#000000;stroke-width:2"
   id="circle74"
   transform="matrix(0.13199701,0,0,0.13199701,607.87024,656.47962)"
   r="50"
   cy="550"
   cx="550"
   sodipodi:cx="550"
   sodipodi:cy="550"
   sodipodi:rx="50"
   sodipodi:ry="50" />
<path
   style="fill:#ffffff"
   id="path76"
   d="m 680.4686,729.07798 v -6.59986 a 6.5998505,6.5998505 0 0 1 6.59985,6.59986 z"
   inkscape:connector-curvature="0" />
<circle
   style="fill:#000000;stroke:#000000;stroke-width:2"
   id="circle78"
   transform="matrix(0.13199701,0,0,0.13199701,607.87024,656.47962)"
   r="50"
   cy="550"
   cx="700"
   sodipodi:cx="700"
   sodipodi:cy="550"
   sodipodi:rx="50"
   sodipodi:ry="50" />



















  
 ################## ROW 5 ##################
  <circle
   style="fill:#ff0000;stroke:#ff0000;stroke-width:2"
   id="circle80"
   transform="matrix(0.13199701,0,0,0.13199701,607.87024,656.47962)"
   r="50"
   cy="700"
   cx="100"
   sodipodi:cx="100"
   sodipodi:cy="700"
   sodipodi:rx="50"
   sodipodi:ry="50" />
<circle
   style="fill:#ffffff;stroke:#ff0000;stroke-width:2"
   id="circle82"
   transform="matrix(0.27902855,0,0,0.27902855,593.03333,553.651)"
   r="10"
   cy="700"
   cx="100"
   sodipodi:cx="100"
   sodipodi:cy="700"
   sodipodi:rx="10"
   sodipodi:ry="10" />
<circle
   style="fill:#ff0000;stroke:#ff0000;stroke-width:2"
   id="circle84"
   transform="matrix(0.13199701,0,0,0.13199701,607.87024,656.47962)"
   r="50"
   cy="700"
   cx="250"
   sodipodi:cx="250"
   sodipodi:cy="700"
   sodipodi:rx="50"
   sodipodi:ry="50" />
<path
   style="fill:#ffffff"
   id="path86"
   d="m 634.26964,748.87753 a 6.5998505,6.5998505 0 0 0 13.1997,0 z"
   inkscape:connector-curvature="0" />
<circle
   style="fill:#ffffff;stroke:#000000;stroke-width:2"
   id="circle88"
   transform="matrix(0.13199701,0,0,0.13199701,607.87024,656.47962)"
   r="50"
   cy="700"
   cx="400"
   sodipodi:cx="400"
   sodipodi:cy="700"
   sodipodi:rx="50"
   sodipodi:ry="50" />
<circle
   style="fill:#ffffff;stroke:#000000;stroke-width:2"
   id="circle90"
   transform="matrix(0.13199701,0,0,0.13199701,607.87024,656.47962)"
   r="50"
   cy="700"
   cx="550"
   sodipodi:cx="550"
   sodipodi:cy="700"
   sodipodi:rx="50"
   sodipodi:ry="50" />
<path
   style="fill:#000000"
   id="path92"
   d="m 673.86875,748.87753 a 6.5998505,6.5998505 0 0 0 13.1997,0 z"
   inkscape:connector-curvature="0" />
<circle
   style="fill:#000000;stroke:#000000;stroke-width:2"
   id="circle94"
   transform="matrix(0.13199701,0,0,0.13199701,607.87024,656.47962)"
   r="50"
   cy="700"
   cx="700"
   sodipodi:cx="700"
   sodipodi:cy="700"
   sodipodi:rx="50"
   sodipodi:ry="50" />
</svg>
